<?xml version="1.0" encoding="UTF-8" ?>
<!DOCTYPE svg PUBLIC "-//W3C//DTD SVG 1.1//EN" "http://www.w3.org/Graphics/SVG/1.1/DTD/svg11.dtd">
<svg width="174pt" height="212pt" viewBox="0 0 174 212" version="1.1" xmlns="http://www.w3.org/2000/svg">
<g id="#000000ff">
<path fill="#000000" opacity="1.00" d=" M 72.04 0.00 L 91.98 0.00 C 91.99 3.27 92.01 6.55 92.06 9.82 C 88.73 9.91 85.39 9.96 82.05 9.97 C 78.67 9.99 75.30 9.95 71.93 9.87 C 71.97 6.58 72.00 3.29 72.04 0.00 Z" />
<path fill="#000000" opacity="1.00" d=" M 132.04 0.00 L 151.97 0.00 C 152.00 3.27 152.03 6.55 152.06 9.82 C 148.72 9.91 145.39 9.96 142.06 9.97 C 138.68 9.99 135.31 9.95 131.93 9.87 C 131.97 6.58 132.00 3.29 132.04 0.00 Z" />
<path fill="#000000" opacity="1.00" d=" M 62.26 10.26 C 65.48 10.11 68.70 9.99 71.93 9.87 C 71.98 13.25 72.00 16.64 72.03 20.03 C 68.63 19.97 65.24 19.92 61.84 19.84 C 61.98 16.64 62.11 13.45 62.26 10.26 Z" />
<path fill="#000000" opacity="1.00" d=" M 92.06 9.82 C 95.32 9.96 98.58 10.10 101.84 10.25 C 102.23 20.10 101.77 29.95 102.15 39.80 C 105.41 39.89 108.66 39.97 111.92 40.06 C 111.95 43.36 111.97 46.67 111.97 49.97 C 112.00 60.00 111.97 70.02 111.92 80.04 C 111.93 83.31 111.98 86.58 112.03 89.85 C 115.42 90.00 118.81 90.14 122.20 90.31 C 122.03 93.35 121.87 96.40 121.69 99.44 C 118.55 99.84 115.40 100.15 112.26 100.55 C 112.14 103.67 112.05 106.79 111.94 109.92 C 108.62 109.97 105.30 110.00 101.98 110.00 C 101.99 106.77 102.00 103.54 101.99 100.31 C 102.01 93.58 102.07 86.86 102.07 80.13 C 102.06 76.79 102.00 73.44 101.95 70.09 C 98.62 70.01 95.30 69.93 91.98 69.85 C 91.98 59.92 92.16 49.98 91.93 40.05 C 88.64 40.04 85.35 40.02 82.07 40.01 C 82.03 36.72 81.99 33.42 81.96 30.13 C 85.29 30.06 88.62 29.98 91.95 29.91 C 92.15 23.21 92.19 16.52 92.06 9.82 Z" />
<path fill="#000000" opacity="1.00" d=" M 122.25 10.25 C 125.48 10.11 128.70 9.99 131.93 9.87 C 131.98 13.25 131.99 16.64 132.02 20.02 C 128.63 19.97 125.24 19.93 121.85 19.84 C 121.98 16.64 122.11 13.45 122.25 10.25 Z" />
<path fill="#000000" opacity="1.00" d=" M 152.06 9.82 C 155.31 9.96 158.56 10.10 161.82 10.25 C 162.24 20.18 162.01 30.11 161.94 40.04 C 158.66 40.07 155.38 40.09 152.11 40.12 C 152.08 30.02 152.09 19.92 152.06 9.82 Z" />
<path fill="#000000" opacity="1.00" d=" M 52.18 20.26 C 55.40 20.11 58.62 19.97 61.84 19.84 C 61.91 23.23 61.97 26.63 62.03 30.02 C 58.68 29.99 55.33 29.96 51.98 29.90 C 52.03 26.69 52.11 23.47 52.18 20.26 Z" />
<path fill="#000000" opacity="1.00" d=" M 72.03 20.03 C 75.34 20.02 78.65 20.02 81.95 20.03 C 81.94 23.40 81.94 26.76 81.96 30.13 C 78.62 30.09 75.28 30.06 71.94 30.03 C 71.97 26.69 71.99 23.36 72.03 20.03 Z" />
<path fill="#000000" opacity="1.00" d=" M 112.20 20.25 C 115.41 20.10 118.63 19.97 121.85 19.84 C 121.92 23.24 121.96 26.64 121.98 30.04 C 122.00 33.35 122.00 36.67 122.00 39.98 C 118.64 40.01 115.28 40.03 111.92 40.06 C 111.86 33.45 111.94 26.85 112.20 20.25 Z" />
<path fill="#000000" opacity="1.00" d=" M 132.02 20.02 C 135.33 20.02 138.63 20.03 141.94 20.04 C 141.91 26.70 141.94 33.36 141.95 40.02 C 138.65 40.03 135.35 40.05 132.06 40.05 C 132.05 36.71 132.04 33.36 132.03 30.02 C 132.02 26.69 132.01 23.35 132.02 20.02 Z" />
<path fill="#000000" opacity="1.00" d=" M 22.17 30.17 C 28.70 29.80 35.24 29.80 41.76 30.18 C 41.90 33.41 42.01 36.64 42.11 39.87 C 38.76 39.96 35.41 40.03 32.05 40.11 C 31.86 50.07 32.01 60.03 32.03 69.99 C 28.66 69.93 25.30 69.89 21.93 69.82 C 22.20 56.60 21.67 43.38 22.17 30.17 Z" />
<path fill="#000000" opacity="1.00" d=" M 62.03 30.02 C 65.33 30.01 68.64 30.01 71.94 30.03 C 72.02 33.29 72.10 36.55 72.19 39.82 C 75.48 39.89 78.78 39.95 82.07 40.01 C 81.98 43.22 81.91 46.43 81.81 49.64 C 78.57 49.89 75.34 50.06 72.11 50.30 C 72.06 53.51 72.01 56.72 71.96 59.93 C 68.67 59.94 65.38 59.96 62.09 59.99 C 55.44 60.04 48.79 60.02 42.13 59.87 C 41.94 53.20 41.94 46.53 42.11 39.87 C 45.37 39.93 48.63 40.00 51.88 40.07 C 51.95 43.40 52.02 46.72 52.10 50.05 C 55.38 50.09 58.66 50.08 61.94 50.05 C 62.01 46.71 62.07 43.37 62.09 40.03 C 62.09 36.69 62.03 33.36 62.03 30.02 Z" />
<path fill="#000000" opacity="1.00" d=" M 122.00 39.98 C 125.35 40.00 128.70 40.02 132.06 40.05 C 131.77 56.60 132.36 73.16 131.80 89.70 C 128.60 89.91 125.40 90.09 122.20 90.31 C 122.12 86.87 122.06 83.44 122.03 80.00 C 121.98 69.99 122.05 59.98 122.03 49.97 C 122.03 46.64 122.01 43.31 122.00 39.98 Z" />
<path fill="#000000" opacity="1.00" d=" M 141.95 40.02 C 145.33 40.05 148.72 40.08 152.11 40.12 C 152.08 43.37 152.05 46.61 152.02 49.86 C 151.83 69.95 151.86 90.04 152.01 110.13 C 152.01 113.41 152.00 116.68 151.98 119.96 C 148.66 120.05 145.34 120.12 142.02 120.20 C 141.95 93.48 142.08 66.75 141.95 40.02 Z" />
<path fill="#000000" opacity="1.00" d=" M 161.94 40.04 C 165.96 40.02 169.98 40.00 174.00 39.98 L 174.00 120.02 C 170.02 119.99 166.04 119.98 162.07 119.97 C 162.02 116.69 162.00 113.41 161.99 110.14 C 162.14 90.05 162.16 69.95 161.99 49.87 C 161.97 46.59 161.95 43.31 161.94 40.04 Z" />
<path fill="#000000" opacity="1.00" d=" M 12.18 70.26 C 15.43 70.10 18.68 69.97 21.93 69.82 C 21.95 73.27 21.97 76.71 21.98 80.16 C 21.97 86.88 21.98 93.59 22.00 100.30 C 22.00 103.57 22.00 106.84 21.97 110.11 C 18.71 110.01 15.44 109.90 12.18 109.76 C 11.83 96.60 11.82 83.42 12.18 70.26 Z" />
<path fill="#000000" opacity="1.00" d=" M 42.21 80.20 C 45.46 80.08 48.71 79.99 51.96 79.87 C 51.90 83.23 51.96 86.59 52.01 89.95 C 48.62 89.94 45.24 89.89 41.86 89.97 C 41.99 86.71 42.08 83.46 42.21 80.20 Z" />
<path fill="#000000" opacity="1.00" d=" M 71.94 80.14 C 75.23 80.13 78.53 80.10 81.82 80.08 C 81.92 83.40 82.00 86.72 82.10 90.04 C 78.77 89.93 75.43 89.93 72.10 89.89 C 72.04 86.64 72.00 83.39 71.94 80.14 Z" />
<path fill="#000000" opacity="1.00" d=" M 52.01 89.95 C 55.31 90.01 58.61 90.04 61.92 90.10 C 61.95 93.40 61.98 96.70 62.00 100.00 C 58.68 99.99 55.37 99.97 52.05 99.94 C 52.03 96.61 52.03 93.28 52.01 89.95 Z" />
<path fill="#000000" opacity="1.00" d=" M 62.00 100.00 C 65.31 100.00 68.61 99.96 71.92 99.98 C 71.89 103.33 71.87 106.67 71.85 110.02 C 68.60 110.01 65.35 109.96 62.10 109.93 C 62.05 106.62 62.02 103.31 62.00 100.00 Z" />
<path fill="#000000" opacity="1.00" d=" M 21.97 110.11 C 25.30 110.03 28.63 109.98 31.95 109.97 C 31.98 113.33 31.99 116.68 32.00 120.04 C 28.64 119.96 25.28 119.89 21.93 119.81 C 21.96 116.57 21.97 113.34 21.97 110.11 Z" />
<path fill="#000000" opacity="1.00" d=" M 92.04 109.98 C 95.35 109.99 98.66 110.00 101.98 110.00 C 102.00 113.31 102.02 116.63 102.05 119.95 C 98.70 119.97 95.35 119.99 92.01 120.01 C 92.01 116.66 92.02 113.32 92.04 109.98 Z" />
<path fill="#000000" opacity="1.00" d=" M 111.94 109.92 C 118.45 109.85 124.96 109.93 131.47 110.24 C 131.84 113.38 132.14 116.54 132.53 119.68 C 135.69 119.87 138.85 120.03 142.02 120.20 C 142.01 123.40 141.99 126.59 141.97 129.79 C 138.79 130.01 135.62 130.22 132.45 130.46 C 132.22 133.63 132.03 136.80 131.81 139.97 C 128.56 139.96 125.31 139.96 122.06 139.96 C 122.05 136.68 122.09 133.40 122.07 130.13 C 122.05 126.78 121.98 123.43 121.95 120.09 C 118.62 120.01 115.30 119.93 111.97 119.84 C 111.96 116.53 111.94 113.22 111.94 109.92 Z" />
<path fill="#000000" opacity="1.00" d=" M 12.20 120.26 C 15.44 120.09 18.68 119.96 21.93 119.81 C 21.93 123.20 21.96 126.60 21.99 130.00 C 22.00 133.32 22.03 136.64 22.02 139.97 C 18.66 139.96 15.30 139.96 11.94 139.94 C 11.86 133.38 11.94 126.82 12.20 120.26 Z" />
<path fill="#000000" opacity="1.00" d=" M 32.00 120.04 C 35.39 120.02 38.78 120.01 42.17 120.00 C 55.39 120.00 68.60 120.00 81.82 120.01 C 85.22 120.01 88.61 120.01 92.01 120.01 C 91.99 123.34 91.97 126.68 91.94 130.02 C 71.99 129.94 52.03 130.01 32.07 129.96 C 32.04 126.65 32.02 123.34 32.00 120.04 Z" />
<path fill="#000000" opacity="1.00" d=" M 151.98 119.96 C 155.34 119.96 158.71 119.96 162.07 119.97 C 161.98 123.24 161.90 126.52 161.80 129.79 C 158.56 129.90 155.32 130.01 152.09 130.13 C 152.05 126.74 152.02 123.35 151.98 119.96 Z" />
<path fill="#000000" opacity="1.00" d=" M 141.97 129.79 C 145.34 129.91 148.71 130.01 152.09 130.13 C 151.99 133.35 151.90 136.57 151.80 139.80 C 148.53 139.90 145.26 139.98 141.99 140.08 C 141.98 136.65 141.98 133.22 141.97 129.79 Z" />
<path fill="#000000" opacity="1.00" d=" M 0.00 140.03 C 3.98 140.00 7.96 139.98 11.94 139.94 C 11.97 143.35 11.98 146.75 11.98 150.15 C 11.98 154.05 11.98 157.95 11.98 161.85 C 11.98 165.25 11.97 168.65 11.94 172.06 C 7.96 172.02 3.98 172.00 0.00 171.97 L 0.00 140.03 Z" />
<path fill="#000000" opacity="1.00" d=" M 32.14 140.13 C 43.75 139.85 55.38 140.08 67.00 140.02 C 78.62 140.08 90.25 139.85 101.87 140.13 C 102.15 150.74 101.86 161.36 102.10 171.98 C 98.73 172.00 95.37 172.01 92.01 172.04 C 92.01 168.59 92.03 165.14 92.03 161.70 C 92.02 157.82 91.99 153.94 91.95 150.06 C 75.32 149.95 58.68 149.94 42.04 150.06 C 42.02 153.94 42.00 157.81 41.97 161.69 C 41.95 165.18 41.94 168.66 41.89 172.15 C 38.64 172.02 35.39 171.93 32.14 171.78 C 31.89 161.23 31.90 150.68 32.14 140.13 Z" />
<path fill="#000000" opacity="1.00" d=" M 131.81 139.97 C 135.20 140.02 138.60 140.05 141.99 140.08 C 141.86 153.99 142.31 167.89 141.83 181.79 C 138.58 181.89 135.33 181.98 132.08 182.09 C 132.03 178.77 131.99 175.44 131.99 172.12 C 132.02 164.69 132.14 157.27 132.00 149.84 C 131.95 146.55 131.88 143.26 131.81 139.97 Z" />
<path fill="#000000" opacity="1.00" d=" M 11.94 172.06 C 15.30 172.04 18.66 172.04 22.02 172.05 C 22.05 175.30 22.03 178.57 22.00 181.83 C 21.95 185.28 21.86 188.74 21.79 192.20 C 18.59 192.04 15.40 191.90 12.20 191.74 C 11.94 185.18 11.86 178.62 11.94 172.06 Z" />
<path fill="#000000" opacity="1.00" d=" M 41.89 172.15 C 45.31 172.04 48.72 171.96 52.14 171.84 C 52.06 175.26 52.00 178.67 51.93 182.09 C 48.68 181.99 45.44 181.92 42.19 181.80 C 42.09 178.58 42.01 175.37 41.89 172.15 Z" />
<path fill="#000000" opacity="1.00" d=" M 81.88 171.87 C 85.25 171.94 88.63 171.99 92.01 172.04 C 91.99 175.38 91.98 178.72 91.99 182.07 C 88.67 182.03 85.35 182.02 82.03 181.99 C 81.98 178.62 81.94 175.25 81.88 171.87 Z" />
<path fill="#000000" opacity="1.00" d=" M 51.93 182.09 C 55.39 182.04 58.85 182.02 62.31 182.01 C 65.44 181.99 68.56 182.00 71.69 182.00 C 75.14 182.00 78.59 181.99 82.03 181.99 C 82.02 185.33 82.02 188.67 82.02 192.02 C 72.03 191.88 62.05 191.87 52.06 191.96 C 52.01 188.67 51.98 185.38 51.93 182.09 Z" />
<path fill="#000000" opacity="1.00" d=" M 121.95 181.95 C 125.33 182.00 128.71 182.05 132.08 182.09 C 131.99 185.32 131.90 188.56 131.80 191.79 C 128.56 191.90 125.32 191.99 122.09 192.09 C 122.05 188.71 122.00 185.33 121.95 181.95 Z" />
<path fill="#000000" opacity="1.00" d=" M 21.79 192.20 C 25.25 192.11 28.71 192.04 32.17 192.02 C 35.43 192.00 38.68 192.03 41.94 192.03 C 41.95 195.37 41.95 198.70 41.95 202.04 C 35.38 202.15 28.82 202.06 22.26 201.80 C 22.10 198.60 21.96 195.40 21.79 192.20 Z" />
<path fill="#000000" opacity="1.00" d=" M 101.90 192.18 C 105.31 192.10 108.72 192.00 112.13 191.97 C 115.45 191.96 118.77 192.02 122.09 192.09 C 121.98 195.34 121.89 198.58 121.79 201.83 C 115.18 202.08 108.57 202.14 101.96 201.94 C 101.94 198.69 101.92 195.44 101.90 192.18 Z" />
<path fill="#000000" opacity="1.00" d=" M 41.95 202.04 C 55.35 202.09 68.75 202.19 82.16 201.96 C 88.76 201.89 95.36 201.85 101.96 201.94 C 101.98 205.30 102.00 208.65 102.02 212.00 L 42.03 212.00 C 42.00 208.68 41.98 205.36 41.95 202.04 Z" />
</g>
<g id="#efbbbfff">
<path fill="#efbbbf" opacity="1.00" d=" M 71.93 9.87 C 75.30 9.95 78.67 9.99 82.05 9.97 C 82.00 13.32 81.97 16.68 81.95 20.03 C 78.65 20.02 75.34 20.02 72.03 20.03 C 72.00 16.64 71.98 13.25 71.93 9.87 Z" />
<path fill="#efbbbf" opacity="1.00" d=" M 131.93 9.87 C 135.31 9.95 138.68 9.99 142.06 9.97 C 142.00 13.33 141.96 16.68 141.94 20.04 C 138.63 20.03 135.33 20.02 132.02 20.02 C 131.99 16.64 131.98 13.25 131.93 9.87 Z" />
<path fill="#efbbbf" opacity="1.00" d=" M 61.84 19.84 C 65.24 19.92 68.63 19.97 72.03 20.03 C 71.99 23.36 71.97 26.69 71.94 30.03 C 68.64 30.01 65.33 30.01 62.03 30.02 C 61.97 26.63 61.91 23.23 61.84 19.84 Z" />
<path fill="#efbbbf" opacity="1.00" d=" M 121.85 19.84 C 125.24 19.93 128.63 19.97 132.02 20.02 C 132.01 23.35 132.02 26.69 132.03 30.02 C 128.68 30.02 125.33 30.03 121.98 30.04 C 121.96 26.64 121.92 23.24 121.85 19.84 Z" />
<path fill="#efbbbf" opacity="1.00" d=" M 51.98 29.90 C 55.33 29.96 58.68 29.99 62.03 30.02 C 62.03 33.36 62.09 36.69 62.09 40.03 C 58.69 40.05 55.28 40.06 51.88 40.07 C 51.95 36.68 51.94 33.29 51.98 29.90 Z" />
<path fill="#efbbbf" opacity="1.00" d=" M 32.05 40.11 C 35.41 40.03 38.76 39.96 42.11 39.87 C 41.94 46.53 41.94 53.20 42.13 59.87 C 48.79 60.02 55.44 60.04 62.09 59.99 C 61.96 63.35 61.83 66.72 61.70 70.09 C 58.65 70.24 55.61 70.40 52.56 70.56 C 52.31 73.66 52.07 76.76 51.96 79.87 C 48.71 79.99 45.46 80.08 42.21 80.20 C 42.08 83.46 41.99 86.71 41.86 89.97 C 38.88 90.09 35.92 90.32 32.95 90.55 C 32.46 93.65 32.04 96.76 31.54 99.86 C 28.36 100.04 25.19 100.18 22.00 100.30 C 21.98 93.59 21.97 86.88 21.98 80.16 C 25.26 80.02 28.53 79.88 31.80 79.73 C 31.88 76.49 31.99 73.24 32.03 69.99 C 32.01 60.03 31.86 50.07 32.05 40.11 Z" />
<path fill="#efbbbf" opacity="1.00" d=" M 82.07 40.01 C 85.35 40.02 88.64 40.04 91.93 40.05 C 92.16 49.98 91.98 59.92 91.98 69.85 C 92.02 73.15 92.11 76.45 92.19 79.75 C 95.48 79.88 98.77 80.01 102.07 80.13 C 102.07 86.86 102.01 93.58 101.99 100.31 C 98.81 100.19 95.63 100.04 92.46 99.87 C 91.97 96.77 91.55 93.66 91.06 90.56 C 88.08 90.35 85.09 90.15 82.10 90.04 C 82.00 86.72 81.92 83.40 81.82 80.08 C 78.53 80.10 75.23 80.13 71.94 80.14 C 68.64 80.14 65.33 80.08 62.03 80.01 C 61.91 76.70 61.80 73.39 61.70 70.09 C 65.06 69.98 68.43 69.87 71.80 69.77 C 71.85 66.49 71.91 63.21 71.96 59.93 C 72.01 56.72 72.06 53.51 72.11 50.30 C 75.34 50.06 78.57 49.89 81.81 49.64 C 81.91 46.43 81.98 43.22 82.07 40.01 Z" />
<path fill="#efbbbf" opacity="1.00" d=" M 111.97 49.97 C 115.32 49.98 118.68 49.97 122.03 49.97 C 122.05 59.98 121.98 69.99 122.03 80.00 C 118.66 80.02 115.29 80.02 111.92 80.04 C 111.97 70.02 112.00 60.00 111.97 49.97 Z" />
<path fill="#efbbbf" opacity="1.00" d=" M 31.95 109.97 C 35.30 109.95 38.64 109.96 41.99 109.99 C 42.05 113.32 42.11 116.66 42.17 120.00 C 38.78 120.01 35.39 120.02 32.00 120.04 C 31.99 116.68 31.98 113.33 31.95 109.97 Z" />
<path fill="#efbbbf" opacity="1.00" d=" M 82.04 109.90 C 85.37 109.92 88.71 109.95 92.04 109.98 C 92.02 113.32 92.01 116.66 92.01 120.01 C 88.61 120.01 85.22 120.01 81.82 120.01 C 81.90 116.64 81.96 113.27 82.04 109.90 Z" />
<path fill="#efbbbf" opacity="1.00" d=" M 102.05 119.95 C 105.36 119.89 108.66 119.86 111.97 119.84 C 112.06 123.14 112.14 126.44 112.21 129.75 C 115.50 129.88 118.79 130.01 122.07 130.13 C 122.09 133.40 122.05 136.68 122.06 139.96 C 118.71 140.06 115.36 140.14 112.01 140.26 C 111.94 143.42 111.94 146.59 112.01 149.75 C 115.43 149.86 118.85 149.94 122.27 150.04 C 122.08 153.80 121.91 157.56 121.67 161.32 C 118.57 161.79 115.47 162.21 112.37 162.69 C 112.16 165.77 111.96 168.85 111.78 171.94 C 108.55 171.95 105.32 171.96 102.10 171.98 C 101.86 161.36 102.15 150.74 101.87 140.13 C 90.25 139.85 78.62 140.08 67.00 140.02 C 55.38 140.08 43.75 139.85 32.14 140.13 C 31.90 150.68 31.89 161.23 32.14 171.78 C 35.39 171.93 38.64 172.02 41.89 172.15 C 42.01 175.37 42.09 178.58 42.19 181.80 C 45.44 181.92 48.68 181.99 51.93 182.09 C 51.98 185.38 52.01 188.67 52.06 191.96 C 48.69 192.00 45.31 192.03 41.94 192.03 C 38.68 192.03 35.43 192.00 32.17 192.02 C 32.03 188.77 31.88 185.52 31.72 182.28 C 28.48 182.12 25.24 181.97 22.00 181.83 C 22.03 178.57 22.05 175.30 22.02 172.05 C 21.98 168.78 21.89 165.52 21.80 162.27 C 18.53 162.12 15.25 161.98 11.98 161.85 C 11.98 157.95 11.98 154.05 11.98 150.15 C 15.25 150.02 18.53 149.88 21.80 149.74 C 21.90 146.48 21.98 143.22 22.02 139.97 C 22.03 136.64 22.00 133.32 21.99 130.00 C 25.35 129.97 28.71 129.96 32.07 129.96 C 52.03 130.01 71.99 129.94 91.94 130.02 C 95.22 129.99 98.50 129.90 101.77 129.81 C 101.87 126.52 101.95 123.23 102.05 119.95 Z" />
<path fill="#efbbbf" opacity="1.00" d=" M 41.97 161.69 C 45.33 161.79 48.69 161.89 52.05 162.01 C 52.09 165.28 52.11 168.56 52.14 171.84 C 48.72 171.96 45.31 172.04 41.89 172.15 C 41.94 168.66 41.95 165.18 41.97 161.69 Z" />
<path fill="#efbbbf" opacity="1.00" d=" M 81.94 162.01 C 85.30 161.90 88.67 161.80 92.03 161.70 C 92.03 165.14 92.01 168.59 92.01 172.04 C 88.63 171.99 85.25 171.94 81.88 171.87 C 81.89 168.59 81.91 165.30 81.94 162.01 Z" />
<path fill="#efbbbf" opacity="1.00" d=" M 52.14 171.84 C 55.42 171.87 58.71 171.91 62.00 171.96 C 62.11 175.31 62.21 178.66 62.31 182.01 C 58.85 182.02 55.39 182.04 51.93 182.09 C 52.00 178.67 52.06 175.26 52.14 171.84 Z" />
<path fill="#efbbbf" opacity="1.00" d=" M 72.01 171.95 C 75.30 171.92 78.59 171.89 81.88 171.87 C 81.94 175.25 81.98 178.62 82.03 181.99 C 78.59 181.99 75.14 182.00 71.69 182.00 C 71.79 178.65 71.89 175.30 72.01 171.95 Z" />
<path fill="#efbbbf" opacity="1.00" d=" M 92.01 172.04 C 95.37 172.01 98.73 172.00 102.10 171.98 C 101.99 175.24 101.87 178.50 101.75 181.76 C 98.50 181.87 95.24 181.97 91.99 182.07 C 91.98 178.72 91.99 175.38 92.01 172.04 Z" />
<path fill="#efbbbf" opacity="1.00" d=" M 111.78 171.94 C 115.24 172.04 118.69 172.13 122.15 172.17 C 122.08 175.43 122.01 178.69 121.95 181.95 C 118.69 182.01 115.42 182.08 112.16 182.15 C 112.10 178.74 111.95 175.34 111.78 171.94 Z" />
<path fill="#efbbbf" opacity="1.00" d=" M 82.03 181.99 C 85.35 182.02 88.67 182.03 91.99 182.07 C 91.97 185.45 91.95 188.82 91.96 192.20 C 88.64 192.15 85.33 192.08 82.02 192.02 C 82.02 188.67 82.02 185.33 82.03 181.99 Z" />
</g>
<g id="#bb7c82ff">
<path fill="#bb7c82" opacity="1.00" d=" M 82.05 9.97 C 85.39 9.96 88.73 9.91 92.06 9.82 C 92.19 16.52 92.15 23.21 91.95 29.91 C 88.62 29.98 85.29 30.06 81.96 30.13 C 81.94 26.76 81.94 23.40 81.95 20.03 C 81.97 16.68 82.00 13.32 82.05 9.97 Z" />
<path fill="#bb7c82" opacity="1.00" d=" M 142.06 9.97 C 145.39 9.96 148.72 9.91 152.06 9.82 C 152.09 19.92 152.08 30.02 152.11 40.12 C 148.72 40.08 145.33 40.05 141.95 40.02 C 141.94 33.36 141.91 26.70 141.94 20.04 C 141.96 16.68 142.00 13.33 142.06 9.97 Z" />
<path fill="#bb7c82" opacity="1.00" d=" M 121.98 30.04 C 125.33 30.03 128.68 30.02 132.03 30.02 C 132.04 33.36 132.05 36.71 132.06 40.05 C 128.70 40.02 125.35 40.00 122.00 39.98 C 122.00 36.67 122.00 33.35 121.98 30.04 Z" />
<path fill="#bb7c82" opacity="1.00" d=" M 51.88 40.07 C 55.28 40.06 58.69 40.05 62.09 40.03 C 62.07 43.37 62.01 46.71 61.94 50.05 C 58.66 50.08 55.38 50.09 52.10 50.05 C 52.02 46.72 51.95 43.40 51.88 40.07 Z" />
<path fill="#bb7c82" opacity="1.00" d=" M 111.92 40.06 C 115.28 40.03 118.64 40.01 122.00 39.98 C 122.01 43.31 122.03 46.64 122.03 49.97 C 118.68 49.97 115.32 49.98 111.97 49.97 C 111.97 46.67 111.95 43.36 111.92 40.06 Z" />
<path fill="#bb7c82" opacity="1.00" d=" M 152.02 49.86 C 155.34 49.86 158.66 49.86 161.99 49.87 C 162.16 69.95 162.14 90.05 161.99 110.14 C 158.66 110.14 155.34 110.14 152.01 110.13 C 151.86 90.04 151.83 69.95 152.02 49.86 Z" />
<path fill="#bb7c82" opacity="1.00" d=" M 62.09 59.99 C 65.38 59.96 68.67 59.94 71.96 59.93 C 71.91 63.21 71.85 66.49 71.80 69.77 C 68.43 69.87 65.06 69.98 61.70 70.09 C 61.83 66.72 61.96 63.35 62.09 59.99 Z" />
<path fill="#bb7c82" opacity="1.00" d=" M 21.93 69.82 C 25.30 69.89 28.66 69.93 32.03 69.99 C 31.99 73.24 31.88 76.49 31.80 79.73 C 28.53 79.88 25.26 80.02 21.98 80.16 C 21.97 76.71 21.95 73.27 21.93 69.82 Z" />
<path fill="#bb7c82" opacity="1.00" d=" M 91.98 69.85 C 95.30 69.93 98.62 70.01 101.95 70.09 C 102.00 73.44 102.06 76.79 102.07 80.13 C 98.77 80.01 95.48 79.88 92.19 79.75 C 92.11 76.45 92.02 73.15 91.98 69.85 Z" />
<path fill="#bb7c82" opacity="1.00" d=" M 111.92 80.04 C 115.29 80.02 118.66 80.02 122.03 80.00 C 122.06 83.44 122.12 86.87 122.20 90.31 C 118.81 90.14 115.42 90.00 112.03 89.85 C 111.98 86.58 111.93 83.31 111.92 80.04 Z" />
<path fill="#bb7c82" opacity="1.00" d=" M 101.98 110.00 C 105.30 110.00 108.62 109.97 111.94 109.92 C 111.94 113.22 111.96 116.53 111.97 119.84 C 108.66 119.86 105.36 119.89 102.05 119.95 C 102.02 116.63 102.00 113.31 101.98 110.00 Z" />
<path fill="#bb7c82" opacity="1.00" d=" M 21.93 119.81 C 25.28 119.89 28.64 119.96 32.00 120.04 C 32.02 123.34 32.04 126.65 32.07 129.96 C 28.71 129.96 25.35 129.97 21.99 130.00 C 21.96 126.60 21.93 123.20 21.93 119.81 Z" />
<path fill="#bb7c82" opacity="1.00" d=" M 92.01 120.01 C 95.35 119.99 98.70 119.97 102.05 119.95 C 101.95 123.23 101.87 126.52 101.77 129.81 C 98.50 129.90 95.22 129.99 91.94 130.02 C 91.97 126.68 91.99 123.34 92.01 120.01 Z" />
<path fill="#bb7c82" opacity="1.00" d=" M 111.97 119.84 C 115.30 119.93 118.62 120.01 121.95 120.09 C 121.98 123.43 122.05 126.78 122.07 130.13 C 118.79 130.01 115.50 129.88 112.21 129.75 C 112.14 126.44 112.06 123.14 111.97 119.84 Z" />
<path fill="#bb7c82" opacity="1.00" d=" M 11.94 139.94 C 15.30 139.96 18.66 139.96 22.02 139.97 C 21.98 143.22 21.90 146.48 21.80 149.74 C 18.53 149.88 15.25 150.02 11.98 150.15 C 11.98 146.75 11.97 143.35 11.94 139.94 Z" />
<path fill="#bb7c82" opacity="1.00" d=" M 112.01 140.26 C 115.36 140.14 118.71 140.06 122.06 139.96 C 122.14 143.32 122.20 146.68 122.27 150.04 C 118.85 149.94 115.43 149.86 112.01 149.75 C 111.94 146.59 111.94 143.42 112.01 140.26 Z" />
<path fill="#bb7c82" opacity="1.00" d=" M 122.27 150.04 C 125.51 149.97 128.75 149.90 132.00 149.84 C 132.14 157.27 132.02 164.69 131.99 172.12 C 128.71 172.16 125.43 172.19 122.15 172.17 C 118.69 172.13 115.24 172.04 111.78 171.94 C 111.96 168.85 112.16 165.77 112.37 162.69 C 115.47 162.21 118.57 161.79 121.67 161.32 C 121.91 157.56 122.08 153.80 122.27 150.04 Z" />
<path fill="#bb7c82" opacity="1.00" d=" M 11.98 161.85 C 15.25 161.98 18.53 162.12 21.80 162.27 C 21.89 165.52 21.98 168.78 22.02 172.05 C 18.66 172.04 15.30 172.04 11.94 172.06 C 11.97 168.65 11.98 165.25 11.98 161.85 Z" />
<path fill="#bb7c82" opacity="1.00" d=" M 102.10 171.98 C 105.32 171.96 108.55 171.95 111.78 171.94 C 111.95 175.34 112.10 178.74 112.16 182.15 C 112.22 185.42 112.19 188.69 112.13 191.97 C 108.72 192.00 105.31 192.10 101.90 192.18 C 98.59 192.26 95.27 192.25 91.96 192.20 C 91.95 188.82 91.97 185.45 91.99 182.07 C 95.24 181.97 98.50 181.87 101.75 181.76 C 101.87 178.50 101.99 175.24 102.10 171.98 Z" />
<path fill="#bb7c82" opacity="1.00" d=" M 22.00 181.83 C 25.24 181.97 28.48 182.12 31.72 182.28 C 31.88 185.52 32.03 188.77 32.17 192.02 C 28.71 192.04 25.25 192.11 21.79 192.20 C 21.86 188.74 21.95 185.28 22.00 181.83 Z" />
<path fill="#bb7c82" opacity="1.00" d=" M 41.94 192.03 C 45.31 192.03 48.69 192.00 52.06 191.96 C 62.05 191.87 72.03 191.88 82.02 192.02 C 82.06 195.33 82.11 198.65 82.16 201.96 C 68.75 202.19 55.35 202.09 41.95 202.04 C 41.95 198.70 41.95 195.37 41.94 192.03 Z" />
</g>
<g id="#8f4a51ff">
<path fill="#8f4a51" opacity="1.00" d=" M 152.11 40.12 C 155.38 40.09 158.66 40.07 161.94 40.04 C 161.95 43.31 161.97 46.59 161.99 49.87 C 158.66 49.86 155.34 49.86 152.02 49.86 C 152.05 46.61 152.08 43.37 152.11 40.12 Z" />
<path fill="#8f4a51" opacity="1.00" d=" M 152.01 110.13 C 155.34 110.14 158.66 110.14 161.99 110.14 C 162.00 113.41 162.02 116.69 162.07 119.97 C 158.71 119.96 155.34 119.96 151.98 119.96 C 152.00 116.68 152.01 113.41 152.01 110.13 Z" />
<path fill="#8f4a51" opacity="1.00" d=" M 142.02 120.20 C 145.34 120.12 148.66 120.05 151.98 119.96 C 152.02 123.35 152.05 126.74 152.09 130.13 C 148.71 130.01 145.34 129.91 141.97 129.79 C 141.99 126.59 142.01 123.40 142.02 120.20 Z" />
<path fill="#8f4a51" opacity="1.00" d=" M 132.45 130.46 C 135.62 130.22 138.79 130.01 141.97 129.79 C 141.98 133.22 141.98 136.65 141.99 140.08 C 138.60 140.05 135.20 140.02 131.81 139.97 C 132.03 136.80 132.22 133.63 132.45 130.46 Z" />
<path fill="#8f4a51" opacity="1.00" d=" M 122.06 139.96 C 125.31 139.96 128.56 139.96 131.81 139.97 C 131.88 143.26 131.95 146.55 132.00 149.84 C 128.75 149.90 125.51 149.97 122.27 150.04 C 122.20 146.68 122.14 143.32 122.06 139.96 Z" />
<path fill="#8f4a51" opacity="1.00" d=" M 122.15 172.17 C 125.43 172.19 128.71 172.16 131.99 172.12 C 131.99 175.44 132.03 178.77 132.08 182.09 C 128.71 182.05 125.33 182.00 121.95 181.95 C 122.01 178.69 122.08 175.43 122.15 172.17 Z" />
<path fill="#8f4a51" opacity="1.00" d=" M 112.16 182.15 C 115.42 182.08 118.69 182.01 121.95 181.95 C 122.00 185.33 122.05 188.71 122.09 192.09 C 118.77 192.02 115.45 191.96 112.13 191.97 C 112.19 188.69 112.22 185.42 112.16 182.15 Z" />
<path fill="#8f4a51" opacity="1.00" d=" M 82.02 192.02 C 85.33 192.08 88.64 192.15 91.96 192.20 C 95.27 192.25 98.59 192.26 101.90 192.18 C 101.92 195.44 101.94 198.69 101.96 201.94 C 95.36 201.85 88.76 201.89 82.16 201.96 C 82.11 198.65 82.06 195.33 82.02 192.02 Z" />
</g>
<g id="#fef2f2ff">
<path fill="#fef2f2" opacity="1.00" d=" M 52.56 70.56 C 55.61 70.40 58.65 70.24 61.70 70.09 C 61.80 73.39 61.91 76.70 62.03 80.01 C 65.33 80.08 68.64 80.14 71.94 80.14 C 72.00 83.39 72.04 86.64 72.10 89.89 C 75.43 89.93 78.77 89.93 82.10 90.04 C 85.09 90.15 88.08 90.35 91.06 90.56 C 91.55 93.66 91.97 96.77 92.46 99.87 C 95.63 100.04 98.81 100.19 101.99 100.31 C 102.00 103.54 101.99 106.77 101.98 110.00 C 98.66 110.00 95.35 109.99 92.04 109.98 C 88.71 109.95 85.37 109.92 82.04 109.90 C 81.98 106.65 81.92 103.40 81.86 100.14 C 78.54 100.08 75.23 100.01 71.92 99.98 C 68.61 99.96 65.31 100.00 62.00 100.00 C 61.98 96.70 61.95 93.40 61.92 90.10 C 58.61 90.04 55.31 90.01 52.01 89.95 C 51.96 86.59 51.90 83.23 51.96 79.87 C 52.07 76.76 52.31 73.66 52.56 70.56 Z" />
<path fill="#fef2f2" opacity="1.00" d=" M 32.95 90.55 C 35.92 90.32 38.88 90.09 41.86 89.97 C 45.24 89.89 48.62 89.94 52.01 89.95 C 52.03 93.28 52.03 96.61 52.05 99.94 C 48.75 100.00 45.44 100.09 42.14 100.19 C 42.08 103.45 42.03 106.72 41.99 109.99 C 38.64 109.96 35.30 109.95 31.95 109.97 C 28.63 109.98 25.30 110.03 21.97 110.11 C 22.00 106.84 22.00 103.57 22.00 100.30 C 25.19 100.18 28.36 100.04 31.54 99.86 C 32.04 96.76 32.46 93.65 32.95 90.55 Z" />
<path fill="#fef2f2" opacity="1.00" d=" M 52.05 99.94 C 55.37 99.97 58.68 99.99 62.00 100.00 C 62.02 103.31 62.05 106.62 62.10 109.93 C 65.35 109.96 68.60 110.01 71.85 110.02 C 75.25 110.02 78.64 109.96 82.04 109.90 C 81.96 113.27 81.90 116.64 81.82 120.01 C 68.60 120.00 55.39 120.00 42.17 120.00 C 42.11 116.66 42.05 113.32 41.99 109.99 C 45.26 109.96 48.54 109.91 51.82 109.87 C 51.92 106.56 51.99 103.25 52.05 99.94 Z" />
<path fill="#fef2f2" opacity="1.00" d=" M 42.04 150.06 C 58.68 149.94 75.32 149.95 91.95 150.06 C 91.99 153.94 92.02 157.82 92.03 161.70 C 88.67 161.80 85.30 161.90 81.94 162.01 C 81.91 165.30 81.89 168.59 81.88 171.87 C 78.59 171.89 75.30 171.92 72.01 171.95 C 71.89 175.30 71.79 178.65 71.69 182.00 C 68.56 182.00 65.44 181.99 62.31 182.01 C 62.21 178.66 62.11 175.31 62.00 171.96 C 58.71 171.91 55.42 171.87 52.14 171.84 C 52.11 168.56 52.09 165.28 52.05 162.01 C 48.69 161.89 45.33 161.79 41.97 161.69 C 42.00 157.81 42.02 153.94 42.04 150.06 Z" />
</g>
<g id="#424242ff">
<path fill="#424242" opacity="1.00" d=" M 42.14 100.19 C 45.44 100.09 48.75 100.00 52.05 99.94 C 51.99 103.25 51.92 106.56 51.82 109.87 C 48.54 109.91 45.26 109.96 41.99 109.99 C 42.03 106.72 42.08 103.45 42.14 100.19 Z" />
<path fill="#424242" opacity="1.00" d=" M 71.92 99.98 C 75.23 100.01 78.54 100.08 81.86 100.14 C 81.92 103.40 81.98 106.65 82.04 109.90 C 78.64 109.96 75.25 110.02 71.85 110.02 C 71.87 106.67 71.89 103.33 71.92 99.98 Z" />
</g>
</svg>
